# xmcd
#
# Track frame offsets:
#	151
#	14871
#	30428
#	47902
#	70918
#	91085
#	108399
#	121252
#	139924
#	153337
#	166710
#	182784
#	196092
#	211548
#	228481
#	240883
#	256586
#	270282
#	284904
#	304992
#
# Disc length: 4238 seconds
#
# Revision: 0
# Processed by: cddbd v1.5.1PL2 Copyright (c) Steve Scherf et al.
# Submitted via: dBpowerAMP V4.0
#
DISCID=09108c14
DTITLE=general - oddysonghits
DYEAR=1975
DGENRE=Country
TTITLE0=oddysonghits01
TTITLE1=oddysonghits02
TTITLE2=oddysonghits03
TTITLE3=oddysonghits04
TTITLE4=oddysonghits05
TTITLE5=oddysonghits06
TTITLE6=oddysonghits07
TTITLE7=oddysonghits08
TTITLE8=oddysonghits09
TTITLE9=oddysonghits10
TTITLE10=oddysonghits11
TTITLE11=oddysonghits12
TTITLE12=oddysonghits13
TTITLE13=oddysonghits14
TTITLE14=oddysonghits15
TTITLE15=oddysonghits16
TTITLE16=oddysonghits17
TTITLE17=oddysonghits18
TTITLE18=oddysonghits19
TTITLE19=oddysonghits20
EXTD=oddysonghits
EXTT0=
EXTT1=
EXTT2=
EXTT3=
EXTT4=
EXTT5=
EXTT6=
EXTT7=
EXTT8=
EXTT9=
EXTT10=
EXTT11=
EXTT12=
EXTT13=
EXTT14=
EXTT15=
EXTT16=
EXTT17=
EXTT18=
EXTT19=
PLAYORDER=
